/* XPM */
static char *bb_penguin[] = {
/* columns rows colors chars-per-pixel */
"77 91 9 1",
"  c black",
". c #00BF00",
"X c green",
"o c #BF0000",
"O c red",
"+ c #FF7F00",
"@ c #D9BF00",
"# c #FFD900",
"$ c yellow",
/* pixels */
"...................................      ....................................",
"................................            .................................",
"..............................                ...............................",
".............................                  ..............................",
"............................                     ............................",
"...........................                oo    ............................",
"...........................                oo     ...........................",
"..........................                         ..........................",
"..........................                         ..........................",
"..........................                          .........................",
"..........................                          .........................",
"..........................                          .........................",
".........................                           .........................",
".........................               @@@@         ........................",
".........................    @@@       @@@@@@        ........................",
".........................   @$$$@     @$$$$$@@       ........................",
".........................   #@o@$@    #$@ o@$@       ........................",
".........................   @   #@    $#  @ #$       ........................",
"..........................  @  o@@    $@    @$@      ........................",
"..........................  @   @@    #@    @$@      ........................",
"..........................  @   @@@#@@@@    @$o      ........................",
"..........................  @@ o@@##@+@#@  @$$       ........................",
"..........................   @@@#############@       ........................",
"..........................   @@##############@       ........................",
"..........................  +@#############@@#        .......................",
"..........................  @#############@o@#        .......................",
"..........................  @###########@o+@#@        .......................",
"..........................  o+########@+o@###@         ......................",
"..........................  ooo@@@@@@oo@###@@@    oo   ......................",
"..........................  @@++++++@@###@@@@@o    o   ......................",
"..........................  @@@@@#####@@@@@#$$@         .....................",
"..........................  @@@@@@@@@@@@@#$$$$$         .....................",
".........................   @$@@@@@@@@@@#$$$$$$@         ....................",
".........................   @$$@@@@@@@@$$$$$$$$$@         ...................",
"........................   @$$$#@@@@@@$$$$$$$$$$#         ...................",
".......................    #$$$$#@@@#$$$$$$$$$$$$o         ..................",
"......................    @$$$$$$##$$$$$$$$$$$$$$@          .................",
".....................    o$$$$$$$$$$$$$$$$$$$$$$$$          .................",
".....................    @$$$$$$$$$$$$$$$$$$$$$$$$o          ................",
"....................     #$$$$$$$$$$$$$$$$$$$$$$$$@           ...............",
"...................     @@$$$$$$$$$$$$$$$$$$$$###$$            ..............",
"...................     @@#$$$$$####$$$$$$#@@@@@@@$@           ..............",
"..................      @@@$$$$$$@#$$$$$$$#@@@@@@@@#            .............",
"..................     o@@$$$$$$$$$$$$$$$$$$$#@@@@@@@            ............",
".................      @$$$$$$$$$$$$$$$$$$$$$$$$#@@@@            ............",
".................      $$$$$$$$$$$$$$$$$$$$$$$$$$$@@@@            ...........",
"................      @$$$$$$$$$$$$$$$$$$$$$$$$$$$$@@@            ...........",
"................     @$$$$$$$$$$$$$$$$$$$$$$$$$$$$$$#@@            ..........",
"................     #$$$$$$$$$$$$$$$$$$$$$$$$$$$$$$$$@            ..........",
"...............     @$$$$$$$$$$$$$$$$$$$$$$$$$$$$$$$$$$            ..........",
"...............     @$$$$$$$$$$$$$$$$$$$$$$$$$$$$$$$$$$             .........",
"..............     o$$$$$$$$$$$$$$$$$$$$$$$$$$$$$$$$$$$@            .........",
"..............     @$$$$$$$$$$$$$$$$$$$$$$$$$$$$$$$$$$$@             ........",
"..............     @$$$$$$$$$$$#$$$$$$$$$$$$$$$$$$$$$$$@             ........",
".............      $$$$$$$$$$$$@$$$$$$$$$$$$$$$$$$$$$$$#             ........",
"............      @$$$$$$$$$$$$@$$$$$$$$$$$$$$$$$$$$$$$$             ........",
"............      @$$$$$$$$$$$$@$$$$$$$$$$$$$$$$$$$$$$$$              .......",
"...........       @$$$$$$$$$$$$@$$$$$$$$$$$$$$$$$$$$$$$$              .......",
"...........       @$$$$$$$$$$$$@$$$$$$$$$$$$$$$$$$$$$$$$              .......",
"...........       @$$$$$$$$$$$$@$$$$$$$$$$$$$$$$$$$$$$$$              .......",
"...........       @$$$$$$$$$$$$@$$$$$$$$$$$$$$$$$$$$$$$$             ........",
"...........   o   @$$$$$$$$$$$$@$$$$$$$$$$$$$$$$$$$$$$$$             ........",
"............@##@  @$$$$$$$$$$$$@$$$$$$$$$$$$$$$$$$$$$$$@             ........",
"...........######  @$$$$$$$$$$$@$$$$$$$$$$$$$$$$$$$$$##@            .........",
"..........@#######  @$$$$$$$$$$@$$$$$$$$$$$$$$$$$$$$####@          @@........",
".........@########@  @$$$$$$$$$@$$$$$$$$$$$$$$$$$$$#####o         o##@.......",
".........@#########@  @$$$$$$$$$$$$$$$$$$$$$$$$$$$$@###@          @###.......",
"........@###########o   #$$$$$$$$$$$$$$$$$$$$$$$$$$@###@o        @####.......",
".....@@@@###########@    @$$$$$$$$$$$$$$$$$$$$$$$$@@@##@+o      +@####.......",
"..@@##@##############@    @$$$$$$$$$$$$$$$$$$$$$$#@@@##@@++oooo+@#####.......",
".@####################     @$$$$$$$$$$$$$$$$$$$$$#@@@###@@@@+@@@######@......",
"@#####################@      $$$$$$$$$$$$$$$$$$$$#@@@####@@@@@@########@.....",
"@######################o     @$$$$$$$$$$$$$$$$$$$$@@@###################@....",
".@######################     @$$$$$$$$$$$$$$$$$$$$@@@@###################@...",
".@######################@    @$$$$$$$$$$$$$$$$$$$$@o@@#####################..",
".@#######################o   @$$$$$$$$$$$$$$$$$$$@ o@@######################@",
".@#######################@@@$$$$$$$$$$$$$$$$$$$$#  o@@#######################",
".@########################@@$$$$$$$$$$$$$$$$$$$@   o@@#######################",
".##########################@$$$$$$$$$$$$$$$$$$@    +@#######################@",
".##########################@@$$$$$$$$$$$$$$$@      +@######################@.",
"@###########################@@#$$$$$$$$$$@@        +@####################@...",
"@###########################@o o@@@@@@o           o@@##################@.....",
"###########################@@+                    o@@################@@......",
"@##########################@@+                    o@@#############@@@........",
".@@@@@@@@@@###############@@@+                    o@@@##########@@@..........",
"....@@+++@@@@@@##########@@@@+                    o+@@@######@@@@@...........",
"........@@+++@@@@@######@@@@+o .................. o+@@@@@@@@@@@+@............",
".............@++@@@@@@@@@@@++.....................@++@@@@@@@@++@.............",
"................@++@@@@@@++@.......................++++@@@@+++...............",
"..................@@++++++@........................@++++++++@................",
".....................@@@@............................@.@@@@.................."
};
